<svg width="146" height="84" viewBox="0 0 146 84" fill="none" xmlns="http://www.w3.org/2000/svg">
<path d="M0 41.9378C0 36.5037 0.706411 31.2563 2.11923 26.1956C3.53205 21.1348 5.72697 16.6756 8.70399 12.8178C11.681 8.96 15.5663 5.86963 20.3598 3.54667C25.2037 1.18222 31.0316 0 37.8434 0C44.6553 0 50.4579 1.18222 55.2514 3.54667C60.0954 5.86963 64.0311 8.96 67.0586 12.8178C70.0861 16.6756 72.281 21.1348 73.6433 26.1956C75.0057 31.2563 75.6869 36.5037 75.6869 41.9378C75.6869 47.3719 75.0057 52.6193 73.6433 57.68C72.281 62.6993 70.1113 67.1793 67.1343 71.12C64.1572 75.0193 60.2468 78.1511 55.4028 80.5156C50.6093 82.8385 44.7562 84 37.8434 84C30.9307 84 25.0524 82.8385 20.2084 80.5156C15.4149 78.1511 11.5044 75.0193 8.47693 71.12C5.49991 67.1793 3.35545 62.6993 2.04355 57.68C0.681182 52.6193 0 47.3719 0 41.9378ZM15.6672 41.9378C15.6672 45.7541 15.9699 49.4459 16.5754 53.0133L55.3271 21.0311C53.6115 18.2104 51.3409 15.9289 48.5153 14.1867C45.7401 12.4444 42.1828 11.5733 37.8434 11.5733C30.628 11.5733 25.128 14.2489 21.3437 19.6C17.5594 24.9511 15.6672 32.397 15.6672 41.9378ZM37.8434 72.3644C42.2837 72.3644 45.9167 71.4726 48.7424 69.6889C51.6185 67.9052 53.8638 65.5822 55.4785 62.72C57.1436 59.8163 58.3041 56.5393 58.9601 52.8889C59.6665 49.2385 60.0197 45.5882 60.0197 41.9378C60.0197 38.4533 59.717 35.0519 59.1115 31.7333L20.6625 63.4667C22.3781 66.163 24.573 68.32 27.2473 69.9378C29.972 71.5556 33.5041 72.3644 37.8434 72.3644Z" fill="#252525"/>
<path d="M146 82.5689H98.62V70.9956H114.514V24.8267C113.808 26.8593 112.572 28.6637 110.806 30.24C109.09 31.8163 106.996 33.1437 104.524 34.2222C102.102 35.2593 99.3769 36.0681 96.3494 36.6489C93.3724 37.1881 90.2945 37.4578 87.1156 37.4578V24.5778C90.5467 24.5778 93.877 24.1215 97.1063 23.2089C100.386 22.2548 103.313 20.8237 105.886 18.9156C108.459 17.0074 110.528 14.6222 112.092 11.76C113.707 8.8563 114.514 5.39259 114.514 1.36889H130.181V70.9956H146V82.5689Z" fill="#252525"/>
</svg>
